<svg xmlns="http://www.w3.org/2000/svg" viewBox="0 0 360 420" role="img" aria-labelledby="title desc">
<title id="title">Кофейный стакан Kapouch</title>
<desc id="desc">Стильный прозрачный стакан капучино с кремовой пеной и логотипом Kapouch.</desc>
<defs>
  <linearGradient id="glass" x1="0" y1="0" x2="1" y2="1">
    <stop offset="0" stop-color="#ffffff" stop-opacity=".88"/>
    <stop offset=".28" stop-color="#fff9f1" stop-opacity=".50"/>
    <stop offset=".7" stop-color="#f4dfcc" stop-opacity=".22"/>
    <stop offset="1" stop-color="#ffffff" stop-opacity=".60"/>
  </linearGradient>
  <linearGradient id="coffee" x1="0" y1="0" x2="0" y2="1">
    <stop offset="0" stop-color="#7b351f"/>
    <stop offset=".30" stop-color="#9b4d2f"/>
    <stop offset=".58" stop-color="#c47b4e"/>
    <stop offset="1" stop-color="#e6b987"/>
  </linearGradient>
  <linearGradient id="milk" x1="0" y1="0" x2="0" y2="1">
    <stop offset="0" stop-color="#fff9ef"/>
    <stop offset=".55" stop-color="#f8ead9"/>
    <stop offset="1" stop-color="#eed2b2"/>
  </linearGradient>
  <linearGradient id="foam" x1="0" y1="0" x2="1" y2="1">
    <stop offset="0" stop-color="#fffdf8"/>
    <stop offset=".62" stop-color="#f7e7d3"/>
    <stop offset="1" stop-color="#e4c6a5"/>
  </linearGradient>
  <linearGradient id="rim" x1="0" y1="0" x2="0" y2="1">
    <stop offset="0" stop-color="#3a2118"/>
    <stop offset=".52" stop-color="#1d110d"/>
    <stop offset="1" stop-color="#0f0907"/>
  </linearGradient>
  <radialGradient id="topCoffee" cx="50%" cy="45%" r="60%">
    <stop offset="0" stop-color="#a85b36"/>
    <stop offset=".68" stop-color="#74341f"/>
    <stop offset="1" stop-color="#4a2117"/>
  </radialGradient>
  <filter id="drop" x="-50%" y="-30%" width="200%" height="190%">
    <feGaussianBlur in="SourceAlpha" stdDeviation="13" result="blur"/>
    <feOffset dy="14" result="offset"/>
    <feColorMatrix in="offset" type="matrix" values="0 0 0 0 0.12  0 0 0 0 0.045  0 0 0 0 0.02  0 0 0 .32 0"/>
    <feBlend in="SourceGraphic"/>
  </filter>
  <clipPath id="cupClip">
    <path d="M86 123 C90 207 99 308 111 363 C115 383 131 393 151 393 H209 C229 393 245 383 249 363 C261 308 270 207 274 123 Z"/>
  </clipPath>
</defs>

<ellipse cx="180" cy="384" rx="104" ry="20" fill="#2f120b" opacity=".16"/>

<g filter="url(#drop)">
  <g clip-path="url(#cupClip)">
    <rect x="84" y="122" width="192" height="274" fill="url(#milk)"/>
    <rect x="84" y="205" width="192" height="191" fill="url(#coffee)"/>
    <path d="M84 206 C122 190 150 222 181 208 C211 195 243 215 276 201 V237 C245 254 211 231 181 243 C146 257 119 231 84 248 Z" fill="#9d4b2d" opacity=".46"/>
    <rect x="84" y="119" width="192" height="92" fill="url(#foam)"/>
    <path d="M92 161 C120 146 139 171 164 155 C193 136 217 169 268 148 L272 204 L88 204 Z" fill="#fbefe0" opacity=".74"/>
    <rect x="84" y="122" width="192" height="274" fill="url(#glass)"/>
    <path d="M110 132 C120 180 121 311 131 363 C133 376 140 383 150 388" fill="none" stroke="#fff" stroke-width="10" stroke-linecap="round" opacity=".32"/>
    <path d="M247 136 C241 205 237 298 226 358" fill="none" stroke="#ffffff" stroke-width="4" stroke-linecap="round" opacity=".28"/>
  </g>

  <path d="M86 123 C90 207 99 308 111 363 C115 383 131 393 151 393 H209 C229 393 245 383 249 363 C261 308 270 207 274 123 Z" fill="none" stroke="#fff5ea" stroke-width="3" opacity=".62"/>

  <ellipse cx="180" cy="123" rx="94" ry="23" fill="#f7e5d0" opacity=".84"/>
  <ellipse cx="180" cy="123" rx="84" ry="16" fill="url(#topCoffee)"/>
  <ellipse cx="180" cy="120" rx="66" ry="10" fill="#d49468" opacity=".38"/>

  <g>
    <path d="M78 119 Q82 93 106 88 H254 Q278 93 282 119 L278 137 H82 Z" fill="url(#rim)"/>
    <ellipse cx="180" cy="99" rx="74" ry="13" fill="#120b08"/>
    <ellipse cx="180" cy="98" rx="61" ry="8" fill="#503126" opacity=".85"/>
    <path d="M99 91 H261 Q271 92 276 104 H84 Q89 92 99 91 Z" fill="#4b2f25" opacity=".72"/>
    <path d="M224 91 C240 89 252 91 261 97" fill="none" stroke="#805745" stroke-width="4" stroke-linecap="round" opacity=".75"/>
  </g>

  <g opacity=".98">
    <rect x="119" y="242" width="122" height="72" rx="23" fill="#f5d9b8" fill-opacity=".88"/>
    <text x="180" y="272" text-anchor="middle" font-family="Arial,Helvetica,sans-serif" font-size="17" font-weight="800" letter-spacing="2.4" fill="#3a1d14">KAPOUCH</text>
    <g transform="translate(164 280)" fill="#8d4a2c">
      <path d="M7 2 C-1 10 1 21 8 26 C15 20 16 9 7 2Z"/>
      <path d="M25 0 C17 8 19 19 26 24 C33 18 34 7 25 0Z"/>
      <path d="M16 19 C8 27 10 38 17 43 C24 37 25 26 16 19Z"/>
    </g>
  </g>
</g>

<g fill="none" stroke="#f4d3b1" stroke-width="6" stroke-linecap="round" opacity=".78">
  <path d="M133 67 C115 49 146 38 132 20"/>
  <path d="M178 60 C160 43 188 31 177 13"/>
  <path d="M222 67 C207 49 235 39 226 22"/>
</g>

<circle cx="286" cy="84" r="6" fill="#f5cf9e" opacity=".72"/>
<circle cx="72" cy="217" r="4" fill="#f5cf9e" opacity=".55"/>
</svg>